<svg width="64" height="64" viewBox="0 0 64 64" fill="none" xmlns="http://www.w3.org/2000/svg">
  <rect width="64" height="64" rx="16" fill="#6FDA44"/>
  <path d="M18.5 36.5V23.5H23.5V35.8C23.5 39.1 25.2 41 28.2 41C31.2 41 32.9 39.1 32.9 35.8V23.5H37.9V36.5C37.9 42.2 34.4 46 28.2 46C22 46 18.5 42.2 18.5 36.5Z" fill="white"/>
  <path d="M41.2 40.9L36.5 23.5H41.6L44.5 35.2C46.3 33.2 48.4 31.8 51.6 31.8C55.9 31.8 58.5 34.7 58.5 38.8C58.5 43.3 55.5 46 50.8 46C46.3 46 43.1 44 41.2 40.9ZM53.5 38.7C53.5 36.8 52.3 35.5 50.3 35.5C48.3 35.5 46.6 36.7 45.1 38.5C46.3 40.7 48.4 42 50.6 42C52.5 42 53.5 40.9 53.5 38.7Z" fill="white"/>
</svg>
